<svg xmlns="http://www.w3.org/2000/svg" width="144" height="155" viewBox="0 0 38.054 40.982"><defs><clipPath id="A"><path d="M0 0h145.67v156.33H0z"/></clipPath></defs><g fill-rule="evenodd"><path d="M0-.005h35.067V6.6L22.49 19.09v21.888l-9.953-9.907V19.09L0 6.6z" fill="#a7a7a7"/><path d="M22.53 9.606l5.082 5.08 5.04-5.08 4.998 4.996-5.04 5.038 5.04 5.08-4.998 4.996-5.04-5.08-5.082 5.08-4.998-4.996 5.082-5.08-5.082-5.038z" fill="#c00000"/></g><path transform="matrix(.26458 0 0 .26458 -.126944 -.173944)" d="M85.64 36.963l19.21 19.202 19.05-19.202 18.89 18.882-19.05 19.042 19.05 19.202-18.89 18.882-19.05-19.202-19.21 19.202L66.75 94.09l19.21-19.202-19.21-19.042z" clip-path="url(#A)" fill="none" stroke="#fff" stroke-linejoin="round" stroke-width="3.041"/></svg>