<svg xmlns="http://www.w3.org/2000/svg" width="287" height="222" viewBox="0 0 75.683 58.577" fill="#fff" fill-rule="evenodd"><path d="M46.392 0h1.48l1.48.127 1.48.17L53.7.9l1.355.423 1.397.466 1.312.508 1.312.593 1.228.635 1.228.72 1.185.762 1.185.804 1.1.9 1.058.9 1.016.973.974 1.016.93 1.058.847 1.143.804 1.143.762 1.185.72 1.227.635 1.27.593 1.27.55 1.354.423 1.354.423 1.397.296 1.397.296 1.44.17 1.48.127 1.48.042 1.524-.042 1.48-.127 1.48-.17 1.48-.296 1.44-.296 1.397-.423 1.397-.423 1.354-.55 1.354-.593 1.312-.635 1.227-.72 1.227-.762 1.185-.804 1.185L69 47.9l-.93 1.058-.974 1.016-1.016.973-1.058.93-1.1.846-1.185.804-1.185.762-1.228.72-1.228.635-1.312.593-1.312.55-1.397.423-1.355.423-2.878.593-1.48.17-1.48.127-1.48.042-.593-.042h-.55l-.55-.042h-.593l-2.2-.254-1.058-.212-1.1-.212-1.058-.254-3.048-1.016-1.016-.423-.93-.466-.974-.466-.93-.508-.9-.55-.9-.593-1.693-1.27.254-.042.55-.212.55-.17 1.1-.423 3.683-2.032 2.794 1.524.508.212.55.212.55.17.55.212.55.127.55.17.55.127.593.127.55.127 1.778.254 1.185.085h2.413l1.185-.085 1.778-.254.55-.127.593-.127.55-.127.593-.17 1.1-.34.508-.17 1.1-.423.508-.254.508-.212.508-.254.508-.296.508-.254.466-.296.508-.296.466-.296.93-.677.423-.34.466-.34.847-.762.804-.762.762-.804.762-.9.677-.846.677-.93.296-.466.296-.508.296-.466.254-.508.296-.508.254-.508.212-.508.254-.508.423-1.1.17-.55.17-.508.17-.593.17-.55.127-.55.127-.593.127-.55.17-1.185.042-.593.085-.593.042-.593V28.06l-.085-1.185-.254-1.778-.127-.55-.127-.593-.127-.55-.677-2.2-.212-.55-.212-.508-.254-.55-.212-.508-.254-.508-.296-.508-.254-.508-.296-.466-.296-.508-.296-.466-.34-.466-.34-.423-.34-.466-.34-.423-.762-.9-.762-.804-.804-.762-.9-.762-.847-.677-.93-.677-.466-.296-.508-.296-.466-.296-.508-.254-.508-.296-.508-.254-.508-.212-.508-.254-1.1-.423-.55-.17-.508-.17-.593-.17-.55-.17-.55-.127-.593-.127-.55-.127-1.778-.254-1.185-.085h-.593l-.635-.042-.593.042h-.593l-.593.042-.593.085-.593.042-1.185.17-.55.127-.593.127-.55.127-2.2.677-.55.212-.508.212-2.794 1.524-3.683-2-.55-.254-.55-.212-.55-.17-.55-.212-.254-.042 1.693-1.27.9-.593.9-.55.93-.508.974-.466.93-.466 2.032-.762 1.016-.34 1.016-.296L39.746.72l1.1-.212 1.058-.17 1.1-.17 1.1-.085.593-.042.55-.042h.55zM21.46 13.713l-3.048.296-.677.17-.635.17-1.27.423-.593.254-1.185.593-.593.34-.55.34-.55.38-1.016.846-.466.423-.93.93-.847 1.016-.38.508-.34.55-.34.593-.34.55-.296.593-.254.593-.254.635-.212.635-.17.635-.17.677-.127.635-.127.677-.085.72-.042.677v1.397l.042.677.085.72.127.677.127.635.17.677.17.635.212.635.254.635.254.593.296.593.34.593.677 1.1.38.508.847 1.016 1.397 1.397.508.38.508.423.55.38.55.34.593.34 1.185.593.593.254 1.27.423.635.17.677.17 3.048.296-.974-1.608-.38-.762-.762-1.608-.677-1.693-.254-.846-.296-.846-.212-.9-.212-.846-.212-.9-.127-.93-.17-.9-.17-1.862-.042-.93v-1.905l.042-.93.17-1.862.17-.9.127-.9.635-2.666.296-.846.254-.846.677-1.693.762-1.608.38-.762zm.085-5.925h1.1l1.1.085.55.085.508.042.55.085.55.127 2.032.508 1.016.34.508.212.466.17 2.794 1.44.508.38.34.17.55.466 1.143.804.974.93.55.423.254.34.423.423 1.947 2.412v.042l1.524 2.666.254.593.212.38.17.635.55 1.312.296 1.397.212.677.127.72.085.34v.38l.127.72.042.508.042.55v.55l.042.593-.042.55v.55l-.085 1.1-.127.72v.34l-.085.34-.127.72-.212.677-.296 1.397-.55 1.312-.17.635-.212.38-.254.593-1.524 2.7-1.947 2.412-.423.423-.254.34-.55.423-.974.973-1.143.762-.55.466-.34.17-.508.38-2.794 1.44-.466.17-.508.212-1.016.34-.508.127-.508.17-.508.127-.508.085-.55.127-.55.085-.508.042-.55.085-1.1.085h-.55l-.55.042-.55-.042h-.55l-1.1-.085-.55-.085-.508-.042-.55-.085-.508-.127-.55-.085-.508-.127-.508-.17-.508-.127-1.016-.34-.466-.212-.508-.17-.466-.212-.466-.254-.466-.212-1.397-.762-.847-.55-.847-.593-.804-.635-.804-.677-.762-.72-1.355-1.524-.635-.846-.635-.804-.55-.9-.254-.466-.254-.423-.254-.466-.212-.466-.254-.466-.212-.508-.17-.466-.212-.508-.17-.508-.17-.466-.127-.508-.17-.55-.127-.508L.46 33.6l-.127-.55-.085-.508-.085-.55-.042-.55-.042-.508-.042-.55v-.55L0 29.246l.042-.55v-.55l.042-.55.042-.508.085-.55.042-.55.085-.508.127-.55.254-1.016.127-.55.127-.508.17-.466.17-.508.212-.508.17-.466.212-.508.254-.466.212-.466.254-.466.254-.423.254-.466.55-.9.635-.804.635-.846L6.3 14.05l.762-.72.804-.635.804-.677.847-.593.847-.55 1.397-.762.466-.212.466-.254.466-.212.508-.17.466-.212 1.016-.34.508-.127.508-.17.508-.127.55-.085.508-.127.55-.085.508-.085 1.65-.127H21l.55-.042z"/></svg>