<svg xmlns="http://www.w3.org/2000/svg" width="272" height="161" viewBox="0 0 71.804 42.564"><path d="M21.296 3.642h-.466l-.466.042H19.9l-.423.042L19 3.77l-.847.17-.423.042-.9.212-.804.254-.847.254-.804.34-.762.34-.762.38-.762.424-.677.466-.72.508-.677.508-.635.55-.593.593-.593.635-.55.635-1.016 1.355-.466.72-.423.72-.38.762-.677 1.6-.254.805-.254.847-.212.847-.085.424-.042.424-.085.466-.042.424-.042.466-.042.424v1.82l.085.932.042.424.085.466.042.424.085.424.212.847.254.847.254.805.677 1.6.38.762.423.72.466.72.508.72.508.635.55.635.593.635.593.593.635.55.677.508.72.508.677.466.762.424.762.38.762.34.804.34.847.254.804.254.9.212.423.042.847.17.466.042.423.042h.466l.466.042h1.143l.677-.042.635-.085.677-.085.635-.085.677-.17.635-.127.593-.212.635-.17 1.778-.762.593-.296.55-.296 1.1-.678 2.413-2-.635-.762-.423-.635-.762-1.355-.34-.678-.34-.72-.296-.72-.254-.72-.254-.762-.212-.72-.212-.762-.17-.805-.127-.762-.17-1.6-.042-.847-.042-.805.042-.805.042-.847.085-.805.085-.762.127-.805.17-.762.212-.805.212-.72.254-.762.254-.72.296-.72.34-.72.34-.678.762-1.355.423-.635.635-.762-2.413-2-1.1-.678-.55-.296-.593-.296-1.185-.508-.593-.212-.635-.212-.593-.212-.635-.127-.677-.17-.635-.085-.677-.085-.635-.085-.677-.042zm0-3.6h.804l.804.042 1.6.17.804.17.762.127 1.524.424.72.254.762.254.72.296.677.34.72.34.635.38.677.424.635.38 2.794 2.287.38.34L37 7l.677.762.635.805.593.847.55.847.508.932.254.424.635 1.398.212.508.17.466.34 1.016.127.466.17.508.127.55.085.508.127.508.085.508.042.55.085.55.042.508.042.55v.55l.042.55-.042.55v.55l-.042.55-.042.508-.085.55-.042.55-.085.508-.127.508-.085.55-.127.508-.17.508-.127.466-.34 1.016-.17.466-.212.508-.635 1.398-.254.466-.254.424-.254.466-.55.847-.593.847-.635.805-.677.762-1.44 1.44-.762.678-.804.635-.847.593-.847.55-.466.254-.423.254-.466.254-1.863.847-.508.17-.466.17-.508.17-.508.127-.508.17-.508.127-.508.085-.55.127-.508.085-.55.042-.508.085-1.1.085h-2.16l-1.1-.085-.508-.085-.55-.042-.508-.085-.55-.127-.508-.085-.508-.127-.508-.17-.508-.127-.466-.17-1.016-.34-1.863-.847-.466-.254-.423-.254-.466-.254-.847-.55-.847-.593-.804-.635-.762-.678-1.44-1.44-.677-.762-.635-.805-.593-.847-.55-.847-.254-.466-.254-.424-.254-.466-.635-1.398-.212-.508-.17-.466-.34-1.016-.127-.466-.17-.508-.127-.55-.085-.508-.127-.508-.085-.55-.042-.508-.085-.55-.042-.508-.042-.55v-.55L0 21.303l.042-.55v-.55l.042-.55.042-.508.085-.55.042-.508.085-.55.127-.508.085-.508.127-.55.17-.508.127-.466.34-1.016.17-.466.212-.508.635-1.398.254-.424.508-.932.55-.847.593-.847.635-.805.677-.762 1.44-1.44.762-.678.804-.635.847-.593.847-.55.466-.254.423-.254.466-.254 1.863-.847.508-.17.466-.17.508-.17.508-.127.508-.17.508-.127.508-.085.55-.127.508-.085.508-.042.55-.085 1.1-.085h.508l.55-.042zm29.254 0h1.1l1.1.085.508.085.55.042.508.085.508.127.55.085.508.127.508.17.508.127.466.17.508.17.466.17.508.212 1.397.635.466.254.423.254.466.254.847.55.847.593.804.635.762.678L66.298 7l.677.762.635.805.593.847.55.847.254.466.254.424.254.466.635 1.398.212.508.17.466.34 1.016.127.466.17.508.127.508.085.55.127.508.085.508.042.55.085.55.042.508.042.55v2.202l-.042.55-.042.508-.085.55-.042.55-.085.508-.127.508-.085.55-.127.508-.17.508-.127.466-.34 1.016-.17.466-.212.508-.635 1.398-.254.466-.254.424-.254.466-.55.847-.593.847-.635.805-.677.762-1.44 1.44-.762.678-.804.635-.847.593-.847.55-.466.254-.423.254-.466.254-1.397.635-.508.212-.466.17-.508.17-.466.17-.508.127-.508.17-.508.127-.55.085-.508.127-.508.085-.55.042-.55.085-.508.042-.55.042h-2.2l-.55-.042-.508-.042-.55-.085-.508-.042-.55-.085-.508-.127-.508-.085-1.016-.254-1.524-.508-.466-.17-.466-.212-1.65-.9 2.33-2.838.72.38.804.34.804.254.847.254.847.212.423.085.466.042.423.085.423.042.93.085h1.82l.423-.042.466-.042.423-.042.466-.085.423-.042.423-.085.847-.212 1.693-.508.762-.34.804-.34.762-.38.72-.424.72-.466.72-.508.635-.508.677-.55.593-.593.593-.635.55-.635.508-.635.508-.72.466-.72.423-.72.38-.762.677-1.6.254-.805.254-.847.212-.847.085-.424.042-.424.085-.466.042-.424.085-.932v-1.78l-.085-.932-.042-.424-.085-.424-.042-.466-.085-.424-.212-.847-.254-.847-.254-.805-.677-1.6-.38-.762-.423-.72-.466-.72-1.016-1.355-.55-.635-.593-.635-.593-.593-.677-.55-.635-.508-.72-.508-.72-.466-.72-.424-.762-.38-1.6-.678-.804-.254-.847-.254-.847-.212-.423-.085-.423-.042-.466-.085-.423-.042-.93-.085h-1.355l-.423.042h-.466l-.466.042-.423.042-.423.085-.466.085-.423.042-.847.212-.847.254-.804.254-.804.34-.72.38-2.33-2.838 1.65-.9.466-.212.466-.17 1.016-.34.508-.127.508-.17.508-.127.508-.085.508-.127.55-.085L47.84.2l.55-.085.508-.042.55-.042H50z" fill-rule="evenodd" fill="#5a5a5a"/></svg>