<svg xmlns="http://www.w3.org/2000/svg" width="272" height="161" viewBox="0 0 71.804 42.522"><path d="M21.296.042h1.058l1.1.085.508.085.55.042.508.085.55.127.508.085.508.127.508.17.508.127.508.17.466.17.508.17 1.863.847.466.254.423.254.466.254.847.55.847.593.804.635.762.678L37.002 7l.677.762.635.805.593.847.55.847.254.466.254.424.254.466.847 1.864.17.508.17.466.17.508.127.508.17.508.127.508.085.508.127.55.085.508.042.508.085.55.085 1.1v2.16l-.085 1.1-.085.508-.042.55-.085.508-.127.55-.085.508-.127.508-.17.508-.127.508-.17.508-.17.466-.17.508-.847 1.864-.254.466-.254.424-.254.466-.55.847-.593.847-.635.805-.677.762-1.44 1.44-.762.678-.804.635-.847.593-.847.55-.466.254-.423.254-.466.254-1.863.847-.508.17-.466.17-.508.17-.508.127-.508.17-.508.127-.508.085-.55.127-.508.085-.55.042-.508.085-1.1.085h-2.16l-1.1-.085-.508-.085-.55-.042-.508-.085-.55-.127-.508-.085-.508-.127-.508-.17-.508-.127-.466-.17-1.016-.34-1.863-.847-.466-.254-.423-.254-.466-.254-.847-.55-.847-.593-.804-.635-.762-.678-1.44-1.44-.677-.762-.635-.805-.593-.847-.55-.847-.254-.466-.254-.424-.254-.466-.847-1.864-.17-.508-.17-.466-.17-.508-.127-.508-.17-.508-.127-.508-.085-.508-.127-.55-.085-.508-.042-.55-.085-.508-.085-1.1v-.55L0 21.26l.042-.508v-.55l.085-1.1.085-.508.042-.55.085-.508.127-.55.085-.508.127-.508.17-.508.127-.508.17-.466.34-1.016.847-1.864.254-.466.254-.424.254-.466.55-.847.593-.847.635-.805.677-.762 1.44-1.44.762-.678.804-.635.847-.593.847-.55.466-.254.423-.254.466-.254 1.863-.847.508-.17.466-.17.508-.17.508-.127.508-.17.508-.127.508-.085.55-.127.508-.085.508-.042.55-.085 1.1-.085h.508l.55-.042zm29.297 0h1.058l1.1.085.508.085.55.042.508.085.55.127.508.085.508.127.508.17.508.127.508.17.466.17.508.17 1.863.847.466.254.423.254.466.254.847.55.847.593.804.635.762.678L66.3 7l.677.762.635.805.593.847.55.847.254.466.254.424.254.466.847 1.864.17.508.17.466.17.508.127.508.17.508.127.508.085.508.127.55.085.508.042.508.085.55.085 1.1v2.16l-.085 1.1-.085.508-.042.55-.085.508-.127.55-.085.508-.127.508-.17.508-.127.508-.17.508-.17.466-.17.508-.847 1.864-.254.466-.254.424-.254.466-.55.847-.593.847-.635.805-.677.762-1.44 1.44-.762.678-.804.635-.847.593-.847.55-.466.254-.423.254-.466.254-1.863.847-.508.17-.466.17-.508.17-.508.127-.508.17-.508.127-.508.085-.55.127-.508.085-.55.042-.508.085-1.1.085h-1.905l-.804-.042-1.6-.17-.804-.127-.762-.17-1.524-.424L42 40.7l2.88-3.515.55-.847.55-.9.466-.9.93-1.864.762-1.948.296-1.016.296-.974.296-1.06.212-1.016.17-1.06.127-1.06.127-1.1.042-1.06.042-1.1-.085-2.202-.127-1.1-.127-1.06-.17-1.06-.212-1.016-.9-3.05-.38-.974-.38-.932-.466-.974-.466-.9-.466-.932-.55-.9-.55-.847L42 1.864l2.244-.9L45.767.55l.762-.127.804-.17 1.6-.17.804-.042z" fill-rule="evenodd" fill="#fff"/></svg>